<mxfile host="app.diagrams.net" modified="2023-07-19T02:12:27.536Z" agent="Mozilla/5.0 (Windows NT 10.0; Win64; x64) AppleWebKit/537.36 (KHTML, like Gecko) Chrome/114.0.0.0 Safari/537.36 Edg/114.0.1823.82" etag="8C5xlxpr2E8DCKSyReYB" version="21.6.3" type="device">
  <diagram name="Page-1" id="13e1069c-82ec-6db2-03f1-153e76fe0fe0">
    <mxGraphModel dx="1173" dy="635" grid="0" gridSize="10" guides="1" tooltips="1" connect="1" arrows="1" fold="1" page="1" pageScale="1" pageWidth="1100" pageHeight="850" background="none" math="0" shadow="0">
      <root>
        <mxCell id="0" />
        <mxCell id="1" parent="0" />
        <mxCell id="7baba1c4bc27f4b0-4" value="Comment Management" style="shape=umlLifeline;perimeter=lifelinePerimeter;whiteSpace=wrap;html=1;container=1;collapsible=0;recursiveResize=0;outlineConnect=0;rounded=1;shadow=0;comic=0;labelBackgroundColor=none;strokeWidth=2;fontFamily=Verdana;fontSize=12;align=center;fontStyle=1" parent="1" vertex="1">
          <mxGeometry x="613" y="80" width="100" height="580" as="geometry" />
        </mxCell>
        <mxCell id="7baba1c4bc27f4b0-22" value="" style="html=1;points=[];perimeter=orthogonalPerimeter;rounded=0;shadow=0;comic=0;labelBackgroundColor=none;strokeWidth=1;fontFamily=Verdana;fontSize=12;align=center;fontStyle=0" parent="7baba1c4bc27f4b0-4" vertex="1">
          <mxGeometry x="45" y="378" width="10" height="48" as="geometry" />
        </mxCell>
        <mxCell id="7baba1c4bc27f4b0-5" value="Profile Management" style="shape=umlLifeline;perimeter=lifelinePerimeter;whiteSpace=wrap;html=1;container=1;collapsible=0;recursiveResize=0;outlineConnect=0;rounded=1;shadow=0;comic=0;labelBackgroundColor=none;strokeWidth=2;fontFamily=Verdana;fontSize=12;align=center;fontStyle=1" parent="1" vertex="1">
          <mxGeometry x="819" y="80" width="104" height="580" as="geometry" />
        </mxCell>
        <mxCell id="7baba1c4bc27f4b0-37" value="" style="html=1;points=[];perimeter=orthogonalPerimeter;rounded=0;shadow=0;comic=0;labelBackgroundColor=none;strokeWidth=2;fontFamily=Verdana;fontSize=12;align=center;fontStyle=0" parent="7baba1c4bc27f4b0-5" vertex="1">
          <mxGeometry x="49" y="440" width="10" height="40" as="geometry" />
        </mxCell>
        <mxCell id="7baba1c4bc27f4b0-8" value="Login Success" style="shape=umlLifeline;perimeter=lifelinePerimeter;whiteSpace=wrap;html=1;container=1;collapsible=0;recursiveResize=0;outlineConnect=0;rounded=1;shadow=0;comic=0;labelBackgroundColor=none;strokeWidth=2;fontFamily=Verdana;fontSize=12;align=center;fontStyle=1" parent="1" vertex="1">
          <mxGeometry x="229" y="80" width="100" height="580" as="geometry" />
        </mxCell>
        <mxCell id="7baba1c4bc27f4b0-9" value="" style="html=1;points=[];perimeter=orthogonalPerimeter;rounded=0;shadow=0;comic=0;labelBackgroundColor=none;strokeWidth=2;fontFamily=Verdana;fontSize=12;align=center;fontStyle=1" parent="7baba1c4bc27f4b0-8" vertex="1">
          <mxGeometry x="45" y="100" width="10" height="55" as="geometry" />
        </mxCell>
        <mxCell id="O8QHGOUDES1ANFxjraI_-1" value="" style="html=1;points=[];perimeter=orthogonalPerimeter;rounded=0;shadow=0;comic=0;labelBackgroundColor=none;strokeWidth=2;fontFamily=Verdana;fontSize=12;align=center;fontStyle=0" parent="1" vertex="1">
          <mxGeometry x="143" y="142" width="10" height="520" as="geometry" />
        </mxCell>
        <mxCell id="O8QHGOUDES1ANFxjraI_-10" value="" style="endArrow=classic;html=1;rounded=0;fontStyle=1;targetPerimeterSpacing=0;strokeWidth=2;" parent="1" edge="1">
          <mxGeometry width="50" height="50" relative="1" as="geometry">
            <mxPoint x="437" y="139" as="sourcePoint" />
            <mxPoint x="437" y="205" as="targetPoint" />
            <Array as="points">
              <mxPoint x="479" y="139" />
              <mxPoint x="479" y="205" />
            </Array>
          </mxGeometry>
        </mxCell>
        <mxCell id="O8QHGOUDES1ANFxjraI_-11" value="" style="endArrow=classic;html=1;rounded=0;fontStyle=0;strokeWidth=2;" parent="1" edge="1">
          <mxGeometry width="50" height="50" relative="1" as="geometry">
            <mxPoint x="439" y="225" as="sourcePoint" />
            <mxPoint x="439" y="291" as="targetPoint" />
            <Array as="points">
              <mxPoint x="481" y="225" />
              <mxPoint x="481" y="291" />
            </Array>
          </mxGeometry>
        </mxCell>
        <mxCell id="O8QHGOUDES1ANFxjraI_-13" value="Edit/Update&lt;br&gt;Post" style="text;html=1;align=center;verticalAlign=middle;resizable=0;points=[];autosize=1;strokeColor=none;fillColor=none;fontStyle=1" parent="1" vertex="1">
          <mxGeometry x="481" y="230" width="85" height="41" as="geometry" />
        </mxCell>
        <mxCell id="O8QHGOUDES1ANFxjraI_-14" value="" style="endArrow=classic;html=1;rounded=0;fontStyle=0;strokeWidth=2;" parent="1" edge="1">
          <mxGeometry width="50" height="50" relative="1" as="geometry">
            <mxPoint x="439" y="320" as="sourcePoint" />
            <mxPoint x="439" y="386" as="targetPoint" />
            <Array as="points">
              <mxPoint x="480" y="320" />
              <mxPoint x="480" y="386" />
            </Array>
          </mxGeometry>
        </mxCell>
        <mxCell id="O8QHGOUDES1ANFxjraI_-15" value="Delete/search&lt;br&gt;Post" style="text;html=1;align=center;verticalAlign=middle;resizable=0;points=[];autosize=1;strokeColor=none;fillColor=none;fontStyle=1" parent="1" vertex="1">
          <mxGeometry x="480" y="330" width="96" height="41" as="geometry" />
        </mxCell>
        <mxCell id="O8QHGOUDES1ANFxjraI_-16" value="&lt;span style=&quot;&quot;&gt;&lt;b&gt;Manage Post&lt;/b&gt;&lt;/span&gt;" style="html=1;verticalAlign=bottom;endArrow=block;labelBackgroundColor=none;fontFamily=Verdana;fontSize=12;edgeStyle=elbowEdgeStyle;elbow=vertical;fontStyle=0;entryX=-0.124;entryY=0.531;entryDx=0;entryDy=0;entryPerimeter=0;strokeWidth=2;" parent="1" target="BDCZ4HkFAonORrg6OWs_-2" edge="1">
          <mxGeometry relative="1" as="geometry">
            <mxPoint x="278" y="437" as="sourcePoint" />
            <mxPoint x="424" y="437" as="targetPoint" />
          </mxGeometry>
        </mxCell>
        <mxCell id="O8QHGOUDES1ANFxjraI_-18" value="" style="endArrow=classic;html=1;rounded=0;fontStyle=1;strokeWidth=2;" parent="1" edge="1">
          <mxGeometry width="50" height="50" relative="1" as="geometry">
            <mxPoint x="666" y="139" as="sourcePoint" />
            <mxPoint x="666" y="205" as="targetPoint" />
            <Array as="points">
              <mxPoint x="708" y="139" />
              <mxPoint x="708" y="205" />
            </Array>
          </mxGeometry>
        </mxCell>
        <mxCell id="O8QHGOUDES1ANFxjraI_-19" value="Add/Edit&lt;br&gt;Comment" style="text;html=1;align=center;verticalAlign=middle;resizable=0;points=[];autosize=1;strokeColor=none;fillColor=none;fontStyle=1" parent="1" vertex="1">
          <mxGeometry x="706" y="150" width="73" height="41" as="geometry" />
        </mxCell>
        <mxCell id="O8QHGOUDES1ANFxjraI_-20" value="" style="endArrow=classic;html=1;rounded=0;fontStyle=1;strokeWidth=2;" parent="1" edge="1">
          <mxGeometry width="50" height="50" relative="1" as="geometry">
            <mxPoint x="663" y="234" as="sourcePoint" />
            <mxPoint x="663" y="300" as="targetPoint" />
            <Array as="points">
              <mxPoint x="705" y="234" />
              <mxPoint x="705" y="300" />
            </Array>
          </mxGeometry>
        </mxCell>
        <mxCell id="O8QHGOUDES1ANFxjraI_-21" value="Save/Update&lt;br&gt;Comment" style="text;html=1;align=center;verticalAlign=middle;resizable=0;points=[];autosize=1;strokeColor=none;fillColor=none;fontStyle=1" parent="1" vertex="1">
          <mxGeometry x="704" y="245" width="90" height="41" as="geometry" />
        </mxCell>
        <mxCell id="O8QHGOUDES1ANFxjraI_-22" value="" style="endArrow=classic;html=1;rounded=0;fontStyle=0;strokeWidth=2;" parent="1" edge="1">
          <mxGeometry width="50" height="50" relative="1" as="geometry">
            <mxPoint x="665" y="337" as="sourcePoint" />
            <mxPoint x="665" y="403" as="targetPoint" />
            <Array as="points">
              <mxPoint x="707" y="337" />
              <mxPoint x="707" y="403" />
            </Array>
          </mxGeometry>
        </mxCell>
        <mxCell id="O8QHGOUDES1ANFxjraI_-23" value="List/Delete&lt;br&gt;Comment" style="text;html=1;align=center;verticalAlign=middle;resizable=0;points=[];autosize=1;strokeColor=none;fillColor=none;fontStyle=1" parent="1" vertex="1">
          <mxGeometry x="706" y="348" width="79" height="41" as="geometry" />
        </mxCell>
        <mxCell id="O8QHGOUDES1ANFxjraI_-24" value="" style="html=1;verticalAlign=bottom;endArrow=block;labelBackgroundColor=none;fontFamily=Verdana;fontSize=12;edgeStyle=elbowEdgeStyle;elbow=vertical;fontStyle=0;strokeWidth=2;" parent="1" source="7baba1c4bc27f4b0-8" target="7baba1c4bc27f4b0-22" edge="1">
          <mxGeometry relative="1" as="geometry">
            <mxPoint x="291" y="507" as="sourcePoint" />
            <mxPoint x="744.5000000000002" y="506.52941176470586" as="targetPoint" />
          </mxGeometry>
        </mxCell>
        <mxCell id="O8QHGOUDES1ANFxjraI_-27" value="" style="endArrow=classic;html=1;rounded=0;fontStyle=1;jumpSize=7;strokeWidth=2;" parent="1" edge="1">
          <mxGeometry width="50" height="50" relative="1" as="geometry">
            <mxPoint x="873" y="149" as="sourcePoint" />
            <mxPoint x="873" y="215" as="targetPoint" />
            <Array as="points">
              <mxPoint x="915" y="149" />
              <mxPoint x="915" y="215" />
            </Array>
          </mxGeometry>
        </mxCell>
        <mxCell id="O8QHGOUDES1ANFxjraI_-28" value="Edit&lt;br&gt;Profile" style="text;html=1;align=center;verticalAlign=middle;resizable=0;points=[];autosize=1;strokeColor=none;fillColor=none;fontStyle=1" parent="1" vertex="1">
          <mxGeometry x="921" y="160" width="55" height="41" as="geometry" />
        </mxCell>
        <mxCell id="O8QHGOUDES1ANFxjraI_-29" value="" style="endArrow=classic;html=1;rounded=0;fontStyle=1;strokeWidth=2;" parent="1" edge="1">
          <mxGeometry width="50" height="50" relative="1" as="geometry">
            <mxPoint x="870" y="244" as="sourcePoint" />
            <mxPoint x="870" y="310" as="targetPoint" />
            <Array as="points">
              <mxPoint x="912" y="244" />
              <mxPoint x="912" y="310" />
            </Array>
          </mxGeometry>
        </mxCell>
        <mxCell id="O8QHGOUDES1ANFxjraI_-30" value="Save/Update&lt;br&gt;profile" style="text;html=1;align=center;verticalAlign=middle;resizable=0;points=[];autosize=1;strokeColor=none;fillColor=none;fontStyle=1" parent="1" vertex="1">
          <mxGeometry x="911" y="255" width="90" height="41" as="geometry" />
        </mxCell>
        <mxCell id="O8QHGOUDES1ANFxjraI_-33" value="&lt;b&gt;Profile Management&lt;/b&gt;" style="html=1;verticalAlign=bottom;endArrow=block;labelBackgroundColor=none;fontFamily=Verdana;fontSize=12;edgeStyle=elbowEdgeStyle;elbow=vertical;fontStyle=0;strokeWidth=2;" parent="1" edge="1">
          <mxGeometry relative="1" as="geometry">
            <mxPoint x="277" y="537" as="sourcePoint" />
            <mxPoint x="864" y="537" as="targetPoint" />
          </mxGeometry>
        </mxCell>
        <mxCell id="O8QHGOUDES1ANFxjraI_-35" value="&lt;b&gt;USER&lt;/b&gt;" style="shape=umlActor;verticalLabelPosition=bottom;verticalAlign=top;html=1;outlineConnect=0;fontStyle=0;strokeWidth=2;" parent="1" vertex="1">
          <mxGeometry x="134" y="55" width="30" height="60" as="geometry" />
        </mxCell>
        <mxCell id="O8QHGOUDES1ANFxjraI_-39" value="" style="endArrow=classic;html=1;rounded=0;exitX=-0.014;exitY=1.094;exitDx=0;exitDy=0;exitPerimeter=0;fontStyle=0;strokeWidth=2;" parent="1" edge="1" source="O8QHGOUDES1ANFxjraI_-40">
          <mxGeometry width="50" height="50" relative="1" as="geometry">
            <mxPoint x="115.38000000000011" y="214.60000000000002" as="sourcePoint" />
            <mxPoint x="275" y="215" as="targetPoint" />
          </mxGeometry>
        </mxCell>
        <mxCell id="O8QHGOUDES1ANFxjraI_-40" value="Login To Page" style="text;html=1;align=center;verticalAlign=middle;resizable=0;points=[];autosize=1;strokeColor=none;fillColor=none;fontStyle=1;strokeWidth=2;" parent="1" vertex="1">
          <mxGeometry x="155" y="187" width="100" height="26" as="geometry" />
        </mxCell>
        <mxCell id="BDCZ4HkFAonORrg6OWs_-1" value="Post Management" style="shape=umlLifeline;perimeter=lifelinePerimeter;whiteSpace=wrap;html=1;container=1;collapsible=0;recursiveResize=0;outlineConnect=0;rounded=1;shadow=0;comic=0;labelBackgroundColor=none;strokeWidth=2;fontFamily=Verdana;fontSize=12;align=center;fontStyle=1" parent="1" vertex="1">
          <mxGeometry x="386" y="80" width="100" height="580" as="geometry" />
        </mxCell>
        <mxCell id="BDCZ4HkFAonORrg6OWs_-2" value="" style="html=1;points=[];perimeter=orthogonalPerimeter;rounded=0;shadow=0;comic=0;labelBackgroundColor=none;strokeWidth=2;fontFamily=Verdana;fontSize=12;align=center;fontStyle=0" parent="BDCZ4HkFAonORrg6OWs_-1" vertex="1">
          <mxGeometry x="45" y="334" width="10" height="43" as="geometry" />
        </mxCell>
        <mxCell id="BDCZ4HkFAonORrg6OWs_-3" value="Add/Save&lt;br&gt;Post" style="text;html=1;align=center;verticalAlign=middle;resizable=0;points=[];autosize=1;strokeColor=none;fillColor=none;fontStyle=1" parent="1" vertex="1">
          <mxGeometry x="477" y="150" width="73" height="41" as="geometry" />
        </mxCell>
        <mxCell id="BDCZ4HkFAonORrg6OWs_-4" value="Comment Management" style="text;html=1;align=center;verticalAlign=middle;resizable=0;points=[];autosize=1;strokeColor=none;fillColor=none;fontStyle=1" parent="1" vertex="1">
          <mxGeometry x="432" y="461" width="150" height="26" as="geometry" />
        </mxCell>
      </root>
    </mxGraphModel>
  </diagram>
</mxfile>
